					<svg viewBox="0 0 774 774"
						xmlns="http://www.w3.org/2000/svg" fill-rule="evenodd" clip-rule="evenodd" stroke-linecap="round" stroke-linejoin="round" stroke-miterlimit="1.585">
						<path d="M1452.63 1650.89l-.91 355.46" fill="none" stroke-width="7.93" transform="matrix(.24229 0 0 .47736 33.013 -682.459)"/>
						<path d="M1452.61 1659.98l-.89 346.37" fill="none" stroke-width="10.8" transform="matrix(.1224 0 0 .37343 221.346 -498.726)"/>
						<path d="M1452 1646.92l-.28 359.43" fill="none" stroke-width="10.28" transform="matrix(.18671 0 0 .36786 99.91 -486.985)"/>
						<path d="M1452 1688.85l-.28 317.5" fill="none" stroke-width="13.34" transform="matrix(.14397 0 0 .28366 202.879 -344.39)"/>
						<path d="M1452 1659.43l-.28 346.92" fill="none" stroke-width="25.72" transform="matrix(.07466 0 0 .1471 317.041 -94.92)"/>
						<path d="M1452.53 1691.42l-.81 314.93" fill="none" stroke-width="13.01" transform="matrix(.09784 0 0 .31117 215.987 -395.969)"/>
						<path d="M1452 1899.55l-.28 106.8" fill="none" stroke-width="5.81" transform="matrix(-.5018 0 0 .53058 1073.514 -860.302)"/>
						<g>
							<path d="M1453.55 2272.68c-3.3 3.22-1.96-449.3-1.96-449.3" fill="none" stroke-width="3.41" transform="matrix(.80848 0 0 .94482 -788.778 -1444.701)"/>
							<path d="M1453.55 2272.68c-3.3 3.22-1.96-449.3-1.96-449.3" fill="none" stroke-width="4.87" transform="matrix(.63841 0 0 .59148 -529.735 -711.024)"/>
							<path d="M1453.55 2272.68c-3.3 3.22-1.96-449.3-1.96-449.3" fill="none" stroke-width="6.03" transform="matrix(.45732 0 0 .53445 -291.999 -587.622)"/>
							<path d="M1453.55 2272.68c-3.3 3.22-1.96-449.3-1.96-449.3" fill="none" stroke-width="14.06" transform="matrix(.1962 0 0 .2293 122.734 45.068)"/>
							<path d="M1453.55 2272.68c-3.3 3.22-1.96-449.3-1.96-449.3" fill="none" stroke-width="13.99" transform="matrix(.1971 0 0 .23034 76.7 52.475)"/>
						</g>
						<g>
							<path d="M854.003 1814.05l17.924 58.32" fill="none" stroke-width="4.18" stroke-miterlimit="1.55" transform="matrix(.88953 0 0 1.8255 -316.648 -3143.715)"/>
							<path d="M854.003 1814.05l17.924 58.32" fill="none" stroke-width="4.18" stroke-miterlimit="1.55" transform="matrix(-.88953 0 0 1.8255 1084.291 -3143.715)"/>
							<path d="M891.358 1779.02l-38.057 35.03-64.351-35.03" fill="none" stroke-width="4.18" stroke-miterlimit="1.55" transform="matrix(.88953 0 0 1.8255 -316.648 -3143.715)"/>
							<path d="M891.358 1779.02l-33.204 35.03-69.204-35.03" fill="none" stroke-width="4.18" stroke-miterlimit="1.55" transform="matrix(-.88953 0 0 1.8255 1086.94 -3143.715)"/>
							<path d="M573.163 1872.37l44.596-59.93-1.519 59.93" fill="none" stroke-width="4.18" stroke-miterlimit="1.55" transform="matrix(.88953 0 0 1.8255 -316.648 -3143.715)"/>
							<path d="M573.163 1872.37l44.242-59.93-1.165 59.93" fill="none" stroke-width="4.18" stroke-miterlimit="1.55" transform="matrix(-.88953 0 0 1.8255 1086.582 -3143.715)"/>
							<path d="M788.95 1872.37l-33.494 141.58 33.494 92.62 33.092-91.69-33.092-142.51z" fill="none" stroke-width="4.18" stroke-miterlimit="1.55" transform="matrix(.88953 0 0 1.8255 -316.648 -3143.715)"/>
							<path d="M1031.45 1872.37l-242.5 234.2 82.937-234.2h159.563z" fill="none" stroke-width="4.18" stroke-miterlimit="1.55" transform="matrix(.88953 0 0 1.8255 -316.047 -3143.92)"/>
							<path d="M546.453 1872.48l157.026-.11 85.471 234.2-242.497-234.09z" fill="none" stroke-width="4.18" stroke-miterlimit="1.55" transform="matrix(.88953 0 0 1.8255 -316.648 -3143.715)"/>
							<path d="M790.749 2106.57l240.991-234.2-72.456-60.37-67.092-33.06-204.784-.34-69.11 33.19-71.78 60.58 244.231 234.2z" fill="none" stroke-width="4.18" stroke-miterlimit="1.55" transform="matrix(.88953 0 0 1.8255 -316.648 -3143.715)"/>
							<path d="M1004.34 1872.37L902.498 1996.5l-31.566 31.37 89.601-155.5" fill="none" stroke-width="4.18" stroke-miterlimit="1.55" transform="matrix(.88953 0 0 1.8255 -317.59 -3141.053)"/>
							<path d="M1004.34 1872.37L902.498 1996.5l-31.566 31.37 89.601-155.5" fill="none" stroke-width="4.18" stroke-miterlimit="1.55" transform="matrix(-.88953 0 0 1.8255 1086.632 -3144.934)"/>
						</g>
						<g>
							<path d="M1393 2573.99l699.16 2.27" fill="none" stroke-width="8.26" transform="matrix(.71607 0 0 .73647 -863.689 -1621.72)"/>
						</g>
						<g transform="translate(-793.607 -1195.716) scale(.78387)">
							<circle cx="1505.62"  cy="2018.61" r="489.381" fill="none" stroke="transparent" stroke-width="7.65"/>
						</g>
						<g>
							<path d="M4322.7 2837.33l-56 104.25" fill="none" stroke-width="7" transform="matrix(-1 0 0 1 4650.313 -2668.935)"/>
						</g>
						<g>
							<path d="M4322.7 2837.33l-56 104.25" fill="none" stroke-width="7" transform="translate(-3881.556 -2667.84)"/>
						</g>
					</svg>