					<svg height="100%" width="100%" viewBox="0 0 774 774"
						xmlns="http://www.w3.org/2000/svg" fill-rule="evenodd" clip-rule="evenodd" stroke-linecap="round" stroke-linejoin="round" stroke-miterlimit="1.55">
						<path d="M1271.79 1586.13l-209.23-163.09" fill="none" stroke-width="3.26" transform="matrix(1.8329 0 0 1.84605 -1778.698 -2448.571)"/>
						<path d="M1353.29 1649.67l-125.76-98.04" fill="none" stroke-width="13.13" transform="matrix(.22764 0 0 .22937 149.595 43.942)"/>
						<path d="M1353.29 1649.67l-136.58-106.47" fill="none" stroke-width="14.92" transform="matrix(.20034 0 0 .20186 176.15 96.19)"/>
						<path d="M1353.29 1649.67l-163.62-127.55" fill="none" stroke-width="16.45" transform="matrix(.18169 0 0 .18307 191.83 134.354)"/>
						<path d="M1353.29 1649.67l-294.11-229.26" fill="none" stroke-width="20.54" transform="matrix(.14426 0 0 .14776 232.398 199.968)"/>
						<path d="M1353.29 1649.67l-294.11-229.26" fill="none" stroke-width="35.24" transform="matrix(.08481 0 0 .08546 300.487 306.963)"/>
						<path d="M1353.29 1649.67l-294.11-229.26" fill="none" stroke-width="6.97" transform="matrix(.42902 0 0 .43228 -238.607 -446.6)"/>
						<path d="M1353.29 1649.67l-294.11-229.26" fill="none" stroke-width="5.59" transform="matrix(-.53508 0 0 -.53914 968.685 1021.688)"/>
						<path d="M1353.29 1649.67l-294.11-229.26" fill="none" stroke-width="6.61" transform="matrix(.45224 0 0 .45567 -256.656 -489.72)"/>
						<path d="M1353.29 1649.67l-294.11-229.26" fill="none" stroke-width="5.99" transform="matrix(.4986 0 0 .50238 -291.414 -573.038)"/>
						<path d="M1353.29 1649.67l-294.11-229.26" fill="none" stroke-width="6.23" transform="matrix(.47961 0 0 .48325 -278.71 -538.087)"/>
						<path d="M1353.29 1649.67c-97.1-78.01-194.97-154.71-294.11-229.26" fill="none" stroke-width="2.67" transform="matrix(1.11987 0 0 1.12837 -932.211 -1476.652)"/>
						<path d="M1353.29 1649.67l-294.11-229.26" fill="none" stroke-width="2.67" transform="matrix(1.11737 0 0 1.12585 -922.58 -1482.657)"/>
						<path d="M1353.29 1649.67l-294.11-229.26" fill="none" stroke-width="2.7" transform="matrix(1.10513 0 0 1.11352 -900.96 -1473.107)"/>
						<path d="M1353.29 1649.67l-294.11-229.26" fill="none" stroke-width="2.75" transform="matrix(1.08771 0 0 1.09597 -872.187 -1455.414)"/>
						<path d="M1353.29 1649.67l-294.11-229.26" fill="none" stroke-width="2.84" transform="matrix(1.05332 0 0 1.06132 -823.044 -1412.04)"/>
						<path d="M1353.29 1649.67l-294.11-229.26" fill="none" stroke-width="2.95" transform="matrix(1.01399 0 0 1.02168 -767.09 -1361.724)"/>
						<path d="M1353.29 1649.67l-294.11-229.26" fill="none" stroke-width="3.07" transform="matrix(.9734 0 0 .9808 -709.422 -1308.768)"/>
						<path d="M1353.29 1649.67l-294.11-229.26" fill="none" stroke-width="3.21" transform="matrix(.93092 0 0 .93799 -649.276 -1253.193)"/>
						<path d="M1353.29 1649.67l-294.11-229.26" fill="none" stroke-width="3.4" transform="matrix(.87304 0 0 .89368 -573.475 -1197.343)"/>
						<path d="M1353.29 1649.67l-294.11-229.26" fill="none" stroke-width="9.56" transform="matrix(.31253 0 0 .3149 181.993 -263.423)"/>
						<path d="M1353.29 1649.67l-294.11-229.26" fill="none" stroke-width="9.29" transform="matrix(.32175 0 0 .3242 24.083 -392.985)"/>
						<path d="M1353.29 1649.67l-294.11-229.26" fill="none" stroke-width="12.84" transform="matrix(.23282 0 0 .23459 288.842 -147.805)"/>
						<path d="M1353.29 1649.67l-294.11-229.26" fill="none" stroke-width="12.76" transform="matrix(.23427 0 0 .23604 135.792 -268.885)"/>
						<path d="M1353.29 1649.67l-294.11-229.26" fill="none" stroke-width="16.69" transform="matrix(.17903 0 0 .18039 354.465 -80.695)"/>
						<path d="M1353.29 1649.67l-294.11-229.26" fill="none" stroke-width="16.67" transform="matrix(.17928 0 0 .18064 217.18 -188.663)"/>
						<path d="M1353.29 1649.67l-294.11-229.26" fill="none" stroke-width="17.56" transform="matrix(.17015 0 0 .17144 359.874 -86.622)"/>
						<path d="M1353.29 1649.67l-294.11-229.26" fill="none" stroke-width="17.37" transform="matrix(.17204 0 0 .17334 245.612 -177.5)"/>
						<path d="M1353.29 1649.67l-294.11-229.26" fill="none" stroke-width="18.3" transform="matrix(.16328 0 0 .16452 360.827 -97.758)"/>
						<path d="M1353.29 1649.67l-294.11-229.26" fill="none" stroke-width="19.08" transform="matrix(.1566 0 0 .15779 290.748 -148.807)"/>
						<path d="M1353.29 1649.67l-293.24-228.75" fill="none" stroke-width="14.37" transform="matrix(.20801 0 0 .2096 253.431 101.526)"/>
						<path d="M1353.29 1649.67l-294.11-229.26" fill="none" stroke-width="7.01" transform="matrix(.42638 0 0 .42962 -243.23 -434.13)"/>
						<path d="M1353.29 1649.67l-294.11-229.26" fill="none" stroke-width="7.2" transform="matrix(.41523 0 0 .41838 -236.879 -407.621)"/>
						<path d="M1353.29 1649.67l-294.11-229.26" fill="none" stroke-width="14.2" transform="matrix(.2105 0 0 .2121 256.85 88.019)"/>
						<path d="M1353.29 1649.67l-294.11-229.26" fill="none" stroke-width="13.38" transform="matrix(.22335 0 0 .22505 247.322 58.324)"/>
						<path d="M1353.29 1649.67l-294.11-229.26" fill="none" stroke-width="11.84" transform="matrix(.25247 0 0 .25439 217.642 4.438)"/>
						<path d="M1353.29 1649.67l-294.11-229.26" fill="none" stroke-width="11.25" transform="matrix(.2656 0 0 .26762 205.03 -28.46)"/>
						<path d="M1353.29 1649.67l-294.11-229.26" fill="none" stroke-width="10.02" transform="matrix(.2984 0 0 .30066 167.293 -91.717)"/>
						<path d="M1353.29 1649.67l-294.11-229.26" fill="none" stroke-width="8.82" transform="matrix(.33872 0 0 .34129 119.06 -167.578)"/>
						<g>
							<path d="M1353.29 1649.67l-294.11-229.26" fill="none" stroke-width="19.98" transform="matrix(.14957 0 0 .1507 184.894 119.196)"/>
							<path d="M1353.29 1649.67l-294.11-229.26" fill="none" stroke-width="17.04" transform="matrix(.1754 0 0 .17673 152.692 93.17)"/>
							<path d="M1353.29 1649.67l-294.11-229.26" fill="none" stroke-width="16.4" transform="matrix(.18225 0 0 .18363 142.392 95.118)"/>
							<path d="M1353.29 1649.67l-294.11-229.26" fill="none" stroke-width="16.84" transform="matrix(.1775 0 0 .17884 147.9 117.474)"/>
						</g>
						<g>
							<circle cx="1155.36" cy="1451.67" r="42.315" fill="none" stroke-width="2.63" transform="matrix(2.26539 .16102 -.15987 2.28164 -1995.922 -3144.415)"/>
							<circle cx="1155.36" cy="1451.67" r="42.315" fill="none" stroke-width="4.43" transform="matrix(1.34442 .09556 -.09488 1.35406 -1025.066 -1717.03)"/>
							<path d="M1148.92 1533.67l-6.32-95.3" fill="none" stroke-width="2.42" transform="scale(2.47425 2.492) rotate(4.037 19043.048 -13188.404)"/>
						</g>
						<g>
							<path d="M1112.52 1536.83c.91-.76-.98-25.94-22.66-48.14-4.44-4.55-23.02-21.18-25.27-23.7-3.84-4.32-13.83-14.96-18.2-28.7-2.96-9.3-2.9-11.95-3.59-18.72-.96-9.3-1.16-19.58 2.9-30.94 5.34-14.92 16.65-30.86 29.53-40.58 11.96-9.12 22.23-14.07 35.07-16.59 3.86-.76 10.81-1.89 15.94-1.95 14.81-.19 26.37 2.59 35.79 6.33 9.54 3.79 20.37 9.98 29.34 19.61 5.79 6.22 15.09 17.16 19.64 31.09 6.02 18.45 7.38 36.4-2.23 60.35-3 7.46-7.81 13.73-14.09 22.6-24.07 34.03-16.5 58.43-16.5 58.43l-65.67 10.91z" fill="none" stroke-width="2.38" transform="matrix(2.4408 .40832 -.4169 2.528 -1771.554 -3747.555)"/>
						</g>
						<g>
							<path d="M1256.17 1772.36c-.39.13 23.06.85.85 15.28-11.73 7.63-35.58 12.08-35.58 12.08s-35.1-11.63-36.08-12.02c-.3-.12-13.97-13.51-2.45-13.25 11.52.26 73.66-2.22 73.26-2.09z" fill="none" stroke-width="2.84" transform="matrix(1.4013 0 0 1.41136 -1324.17 -1833.233)"/>
							<path d="M1257.82 1761.2l-2.92 7.74-1.18 3.43-69.84 1.85-1.97-3.93-4.11-7.81c1.18.39 2.06.35 4.64.28 2.94-.07 7.53.42 12.34.48 15.28.21 36.81.27 50.12-.5 6-.35 11.1-.82 12.92-1.54z" fill="none" stroke-width="4.07" transform="matrix(1.47526 0 0 1.47075 -1411.259 -1938.574)"/>
							<path d="M1266.33 1751.41c.49.22 21.72 3.6-1.4 8.68-1.29.29-2.7.54-4.23.78-25.95 3.95-84.17 1-84.17 1s-12.76-8.17-.56-9.27c12.45-1.12 88.62-1.99 90.36-1.19z" fill="none" stroke-width="4.27" transform="matrix(1.4013 0 0 1.41136 -1324.17 -1833.233)"/>
							<path d="M1268.69 1739.72c-.66-.45-4.44 11.45-4.62 11.34-.19-.11-87.3 1.43-87.65 1.49-.35.06-5.86-9.85-5.54-9.87 11.12-.49 30.09-.37 48.24-.81 25.79-.63 50.13-1.77 49.57-2.15z" fill="none" stroke-width="4.27" transform="matrix(1.4013 0 0 1.41136 -1324.17 -1833.233)"/>
							<path d="M1266.8 1730.6c1.43-.03 6.09-.03 6.85.09.94.16 2.3.24 3.44.77 2.33 1.09 3.88 3-.35 5.91-7.96 5.47-106.46 4.94-107.09 4.86-.64-.09-7.52-6.1-2.43-8.77 4.65-2.43 84.92-2.49 99.58-2.86z" fill="none" stroke-width="4.27" transform="matrix(1.4013 0 0 1.41136 -1324.17 -1833.233)"/>
							<path d="M1275.19 1718l-3.69 12.61s-100.49 1.43-100.8 1.58c-.47.24-6.44-13.76-5.83-13.68 1.56.19 110.6-.51 110.32-.51z" fill="none" stroke-width="4.27" transform="matrix(1.4013 0 0 1.41136 -1324.17 -1833.233)"/>
						</g>
						<g transform="translate(-793.604 -1195.723) scale(.78387)">
							<circle cx="1505.62" cy="2018.61" r="489.381" fill="none" stroke="transparent" stroke-width="7.65" stroke-miterlimit="1.585"/>
						</g>
					</svg>