    <svg 
      viewBox="0 0 321 321"
      xmlns="http://www.w3.org/2000/svg"
    >
      <path 
        d="M160.044,0c88.331,0 160.045,71.714 160.045,160.044c0,88.331 -71.714,160.045 -160.045,160.045c-88.33,0 -160.044,-71.714 -160.044,-160.045c0,-88.33 71.714,-160.044 160.044,-160.044Zm-27.728,165.679c-1.778,0.047 -3.538,0.056 -5.278,0.028c-14.356,-0.23 -24.809,-2.192 -31.36,-5.887c-6.551,-3.695 -9.769,-9.075 -9.656,-16.139c0.068,-4.215 1.527,-8.152 4.378,-11.81c2.85,-3.659 7.4,-6.634 13.648,-8.927c6.247,-2.293 14.102,-3.478 23.562,-3.554c6.838,-0.004 10.317,-3.767 10.438,-11.286c0.038,-2.393 -0.447,-4.11 -1.456,-5.152c-1.009,-1.042 -2.766,-1.64 -5.271,-1.794c-9.907,-0.501 -17.026,-2.524 -21.356,-6.069c-4.331,-3.546 -6.454,-7.996 -6.368,-13.351c0.112,-6.95 3.106,-12.429 8.982,-16.438c5.877,-4.008 13.657,-5.935 23.342,-5.779c7.178,0.115 12.284,1.479 15.319,4.092c3.035,2.612 4.52,5.97 4.454,10.071c-0.022,1.368 -0.348,3.927 -0.978,7.677c-0.606,2.27 -0.924,4.373 -0.955,6.31c-0.046,2.848 0.831,4.999 2.631,6.453c1.8,1.453 4.296,2.206 7.486,2.257c4.557,0.073 8.094,-1.95 10.61,-6.07c2.517,-4.119 3.829,-9.54 3.936,-16.262c0.156,-9.685 -3.25,-17.631 -10.216,-23.84c-6.966,-6.209 -17.513,-9.427 -31.641,-9.653c-10.482,-0.168 -20.137,1.386 -28.965,4.664c-8.828,3.277 -15.885,8.036 -21.17,14.276c-5.286,6.241 -7.994,13.462 -8.126,21.666c-0.097,6.038 1.61,11.536 5.121,16.493c3.51,4.957 8.611,8.457 15.302,10.502c-12.354,2.879 -21.749,7.714 -28.183,14.506c-6.434,6.792 -9.729,15.087 -9.886,24.885c-0.115,7.178 2.146,13.653 6.783,19.426c4.637,5.773 11.771,10.36 21.404,13.763c9.632,3.402 21.626,5.218 35.982,5.449c2.922,0.046 5.859,0.019 8.81,-0.083c0.37,6.063 0.888,11.37 1.627,14.133c0.719,2.69 5.603,1.426 8.315,0.797c2.852,-0.662 7.918,-1.858 8.794,-4.767c0.718,-2.384 0.825,-6.854 0.689,-11.879c1.141,-0.161 2.283,-0.332 3.428,-0.514c10.74,-1.708 19.496,-4.104 26.27,-7.186c4.018,-1.873 6.873,-3.993 8.564,-6.359c1.69,-2.366 2.563,-5.258 2.617,-8.676c0.035,-2.165 -0.392,-3.938 -1.282,-5.32c-0.889,-1.382 -2.246,-2.087 -4.069,-2.117c-1.139,-0.018 -2.569,0.301 -4.289,0.957c-7.571,3.07 -16.643,5.631 -27.218,7.684c-1.478,0.287 -2.945,0.552 -4.4,0.796c-0.064,-0.635 -0.091,-1.26 -0.081,-1.875c0.111,-6.95 3.952,-11.903 11.521,-14.859c7.569,-2.955 19.272,-4.306 35.109,-4.052c5.925,0.095 12.299,0.539 19.125,1.332l-3.491,25.757c-0.785,6.37 -1.87,13.589 -3.253,21.658c-20.17,6.971 -36.496,15.911 -48.979,26.823c-12.483,10.911 -18.841,23.602 -19.073,38.072c-0.13,8.089 2.412,14.854 7.624,20.294c5.212,5.44 12.546,8.235 22.003,8.387c27.991,0.449 48.097,-27.902 60.319,-85.054c11.629,-4.724 22.829,-9.597 27.014,-12.489c3.075,-2.124 -3.509,-7.961 -7.191,-8.603c-3.938,-0.685 -11.067,2.511 -16.598,4.278c0.583,-3.39 1.142,-6.865 1.678,-10.424c0.129,-0.91 0.826,-5.343 2.094,-13.3c0.892,-5.912 1.472,-10.063 1.738,-12.452c3.19,0.052 5.511,-0.766 6.963,-2.452c1.451,-1.686 2.204,-4.238 2.259,-7.657c0.077,-4.785 -3.119,-8.027 -9.588,-9.726c-10.894,-2.91 -23.291,-4.477 -37.191,-4.7c-47.853,-0.767 -71.999,12.522 -72.437,39.866c-0.017,1.088 0.004,2.156 0.066,3.203Zm43.389,101.259c5.583,0.09 11.233,-4.037 16.951,-12.378c5.718,-8.342 10.854,-23.018 15.408,-44.028c-27.996,11.745 -42.136,26.447 -42.419,44.107c-0.062,3.874 0.802,6.88 2.591,9.017c1.789,2.137 4.279,3.231 7.469,3.282Z"
      />
    </svg>