					<svg viewBox="0 0 774 774"
						xmlns="http://www.w3.org/2000/svg" fill-rule="evenodd" clip-rule="evenodd" stroke-linecap="round" stroke-linejoin="round" stroke-miterlimit="1.585">
						<path d="M2092.17 1545.62v767.22" fill="none" stroke-width="7.49" transform="matrix(.80132 0 0 .80131 -1293.936 -1124.691)"/>
						<path d="M2092.17 2230.99l-175.64-333.76c-.54-4.31 66.56 149.2 105.03-14.94 0-.01 0 0 .01 0 3.59.54 19.25 77.88 70.6 73.85" fill="none" stroke-width="5.75" transform="matrix(1.044 0 0 1.044 -1801.693 -1623.4)"/>
						<path d="M2092.17 2230.99l-175.64-333.76c-.54-4.31 66.56 149.2 105.03-14.94 0-.01 0 0 .01 0 3.59.54 20.36 77.43 70.6 74.05" fill="none" stroke-width="5.75" transform="matrix(-1.044 0 0 1.044 2566.798 -1623.4)"/>
						<path d="M1916.53 1894.85V1663.6M2267.81 1894.85V1663.6M2162.93 1882.29l.37-165.29M2021.7 1882.29l-.29-165.29" fill="none" stroke-width="5.75" transform="matrix(1.044 0 0 1.044 -1801.693 -1623.4)"/>
						<path d="M2031.79 2139.12h113.84" fill="none" stroke-width="6" transform="translate(-1705.554 -1542.612)"/>
						<g>
							<path d="M2037.28 2149.78h101.43" fill="none" stroke-width="5.88" transform="translate(-707.7 -488.442) scale(.51028)"/>
							<path d="M2037.28 2149.78h101.43" fill="none" stroke-width="7.61" transform="matrix(.39415 0 0 .39415 -460.329 -217.428)"/>
							<path d="M2037.28 2149.78h101.43" fill="none" stroke-width="11.48" transform="matrix(.2614 0 0 .2614 -177.028 90.772)"/>
							<path d="M2042.49 2162.14h92.05" fill="none" stroke-width="6.06" transform="matrix(.4952 0 0 .4952 -674.804 -451.713)"/>
							<path d="M2042.49 2162.14h92.05" fill="none" stroke-width="7.88" transform="matrix(.38063 0 0 .38063 -430.145 -181.946)"/>
							<path d="M2042.49 2162.14h92.05" fill="none" stroke-width="12.13" transform="translate(-145.95 128.14) scale(.24732)"/>
							<path d="M2042.49 2162.14h92.05" fill="none" stroke-width="17.72" transform="matrix(.16928 0 0 .16928 22.031 310.21)"/>
						</g>
						<g>
							<path d="M2037.28 2149.78h101.43" fill="none" stroke-width="1.51" transform="matrix(-.9203 1.7579 -1.75792 -.9203 6173.3 -1184.419)"/>
							<path d="M2037.28 2149.78h101.43" fill="none" stroke-width="1.53" transform="matrix(-.9079 1.73421 -1.73423 -.9079 6072.723 -1162.301)"/>
							<path d="M2037.28 2149.78h101.43" fill="none" stroke-width="1.81" transform="matrix(-.77 1.47082 -1.47082 -.77 5191.389 -981.172)"/>
							<path d="M2037.28 2149.78h101.43" fill="none" stroke-width="1.5" transform="matrix(-.92989 1.77624 -1.77623 -.92988 6190.486 -1216.634)"/>
							<path d="M2037.28 2149.78h101.43" fill="none" stroke-width="5.59" transform="matrix(-.2491 .47582 -.47583 -.2491 1937.935 -21.42)"/>
							<path d="M2042.49 2162.14h92.05" fill="none" stroke-width="1.39" transform="matrix(-.99783 1.90601 -1.90602 -.99782 6665.486 -1314.928)"/>
							<path d="M2042.49 2162.14h92.05" fill="none" stroke-width="1.33" transform="matrix(-1.0433 1.99285 -1.99285 -1.04329 6925.308 -1401.823)"/>
							<path d="M2042.49 2162.14h92.05" fill="none" stroke-width="2.69" transform="matrix(-.51693 .98742 -.98742 -.51693 3621.184 -505.216)"/>
							<path d="M2042.49 2162.14h92.05" fill="none" stroke-width="1.45" transform="matrix(-.95902 1.83188 -1.83189 -.95902 6390.736 -1276.967)"/>
							<path d="M2042.49 2162.14h92.05" fill="none" stroke-width="10.73" transform="matrix(-.1297 .24775 -.24775 -.1297 1194.369 191.162)"/>
							<path d="M2042.49 2162.14h92.05" fill="none" stroke-width="1.53" transform="matrix(-.9114 1.74092 -1.74092 -.9114 6092.12 -1208.786)"/>
						</g>
						<g transform="translate(-793.596 -1195.711) scale(.78387)">
							<circle cx="1505.62" cy="2018.61" r="489.381" fill="none" stroke="transparent" stroke-width="7.65"/>
						</g>
					</svg>