<?xml version="1.0" encoding="UTF-8" standalone="no"?>
<!DOCTYPE svg PUBLIC "-//W3C//DTD SVG 1.1//EN" "http://www.w3.org/Graphics/SVG/1.1/DTD/svg11.dtd">
<svg width="100%" height="100%" viewBox="0 0 902 430" version="1.1" xmlns="http://www.w3.org/2000/svg" xmlns:xlink="http://www.w3.org/1999/xlink" xml:space="preserve" style="fill-rule:evenodd;clip-rule:evenodd;stroke-linejoin:round;stroke-miterlimit:0;">
    <g transform="matrix(1,0,0,1,-5576.45,-2274.78)">
        <g transform="matrix(2.62269,0,0,0.989843,5083.13,2130.11)">
            <g transform="matrix(0.381287,0,0,1.01026,-306.626,-332.746)">
                <path d="M1502.13,747.416C1529.51,721.309 1556.67,694.974 1585.17,669.987C1598.26,658.513 1611.75,647.52 1625.44,636.776C1657.05,611.985 1689.7,588.454 1720.43,562.64C1734.86,550.685 1777.19,514.393 1814.12,493.318C1833.97,481.99 1852.57,475.306 1865.07,477.223C1867.92,477.667 1869.72,479.015 1870.89,480.691C1871.93,482.185 1872.62,484.091 1872.45,486.425C1872.22,489.616 1868.9,495.426 1867,498.38C1860.72,508.16 1852.06,516.951 1842.41,525.017C1828.92,536.299 1813.53,546.207 1800.76,555.84C1778.33,572.719 1755.43,588.717 1732.06,604.008C1708.73,619.276 1684.93,633.837 1660.71,647.906C1653.16,652.292 1645.43,656.359 1637.6,660.212C1629.8,664.05 1621.9,667.678 1613.97,671.204C1611.41,672.338 1606.76,674.558 1602.02,676.849C1599.93,678.611 1597.86,680.386 1595.8,682.175C1579.13,696.62 1562.92,711.532 1546.86,726.586C1597.61,703.309 1641.38,684.196 1659.78,674.45C1664.72,669.772 1670.29,665.781 1676.19,662.206C1687.37,655.444 1699.79,650.206 1711.5,644.664C1717.9,640.933 1724.3,637.213 1730.72,633.528C1737.6,629.577 1744.49,625.664 1751.4,621.824C1756.3,618.944 1760.84,616.355 1764.09,614.649C1766.49,613.393 1768.29,612.599 1769.19,612.373C1770.91,611.938 1771.95,612.68 1772.39,613.118C1773.26,613.974 1773.57,615.048 1772.98,616.379C1772.82,616.737 1772.27,617.531 1771.1,618.214C1769.16,619.338 1763.99,621.484 1762.88,622.113C1753.18,627.605 1743.53,633.256 1733.92,638.992C1711.5,652.373 1689.24,666.198 1666.74,679.409C1665.3,680.254 1663.62,681.193 1661.71,682.224C1661.84,682.276 1662,682.31 1662.19,682.331C1671.86,683.48 1682.76,681.423 1694.07,677.835C1704.52,674.52 1715.29,669.9 1725.79,665.134C1725.94,664.417 1726.27,663.663 1726.83,662.914C1728.41,660.822 1733.29,658.003 1735.68,656.531C1738.4,654.863 1750.53,648.202 1760,645.101C1766.57,642.952 1772.17,643.157 1774.34,645.366C1776.39,647.45 1776.2,649.466 1774.29,651.345C1773.19,652.428 1770.11,653.545 1768.51,654.067C1762.05,656.168 1754.94,659.102 1747.43,662.373L1747.76,662.286C1761.97,658.345 1779.55,650.209 1789.13,647.27C1792.12,646.354 1794.51,645.944 1796.06,646.004C1798.04,646.082 1799.39,646.842 1800.26,647.701C1801.11,648.541 1802.94,650.975 1800.37,653.807C1800.24,653.952 1799.93,654.254 1799.41,654.629C1798.93,654.969 1797.89,655.637 1796.46,656.534C1793.21,658.568 1787.75,661.885 1782.31,665.188C1792.72,663.505 1804.45,661.296 1810.42,660.545C1825.81,658.611 1836.1,664.338 1809.19,673.532C1808.63,673.722 1805.2,674.886 1801.85,676.365C1804.71,677.017 1808.32,677.257 1812.48,677.336C1820.53,677.487 1830.39,676.569 1841.26,674.846C1873.3,656.48 1907.58,640.826 1928.18,631.343C1930.18,630.43 1957.55,618.7 1973.05,615.72C1979.27,614.523 1984.16,615.039 1986.59,616.397C1989.52,618.043 1991.11,620.55 1991.09,624.041C1991.08,627.045 1989.92,630.387 1987.19,633.756C1984.53,637.052 1980.14,640.657 1974.28,644.265C1957.21,654.768 1926.79,666.261 1895.49,674.826C1880.03,679.056 1864.36,682.572 1849.99,684.948C1843.59,688.548 1837.26,692.258 1831.14,696.05C1806.2,711.503 1784.53,728.112 1775.95,744.408C1775.49,745.285 1775.18,746.404 1775.16,747.502C1775.16,748.095 1774.98,748.841 1775.6,749.082C1796.57,757.246 1841.82,747.117 1890.53,731.918C1958.56,710.69 2032.95,678.524 2059.59,665.591C2062.76,664.051 2148.47,622.096 2177.1,603.092C2175.42,602.825 2173.98,601.583 2173.54,599.827C2172.95,597.481 2174.38,595.101 2176.72,594.514C2197.17,589.309 2197.72,597.503 2190.14,604.447C2173.56,619.653 2067.6,672.91 2064.04,674.676C2033.37,689.873 1939.69,731.078 1864.65,751.751C1824.43,762.829 1789.32,767.624 1771.13,760.685C1766.96,759.095 1764.52,756.005 1763.37,752.337C1761.99,747.914 1762.83,742.453 1764.83,738.596C1773.51,721.889 1794.31,704.34 1819.21,688.226C1816.75,688.299 1814.4,688.298 1812.19,688.223C1801.05,687.848 1792.92,685.336 1788.95,681.308C1786.81,679.127 1786.3,676.724 1787.55,674.18C1780.07,675.327 1772.76,676.345 1768.07,676.6C1764.46,676.796 1761.91,676.354 1760.86,675.817C1759.34,675.042 1758.54,673.845 1758.32,672.337C1758.23,671.716 1757.91,669.893 1759.76,668.175C1759.88,668.057 1760.17,667.803 1760.65,667.487C1761.14,667.163 1762.14,666.545 1763.52,665.722C1759.6,667.104 1755.67,668.394 1751.93,669.443C1742.14,672.192 1733.47,673.033 1728.66,670.675C1717.79,675.442 1706.6,680.093 1695.78,683.371C1683.61,687.061 1671.88,689.031 1661.52,687.672C1659.12,687.358 1657.63,686.242 1656.79,684.817C1631.43,697.945 1579.11,721.864 1522.66,749.394C1510.2,761.174 1497.72,772.945 1485.09,784.551C1469.11,799.224 1452.89,813.627 1436.13,827.482C1427.97,834.234 1371.35,881.464 1336.71,896.03C1328.74,899.38 1321.73,901.04 1316.41,900.724C1308.75,900.271 1303.53,896.606 1301.42,889.089C1299.65,882.804 1301.11,875.504 1306.27,867.636C1314.75,854.7 1334.04,839.113 1359.88,822.7C1398.17,798.393 1450.94,771.674 1502.13,747.416ZM1474.85,773.177C1449.69,785.965 1424.98,799.074 1402.67,811.876C1366.39,832.702 1336.49,852.522 1322.13,869.053C1316.63,875.38 1313.18,880.626 1314.55,885.336C1315.1,887.223 1316.94,887.143 1319.1,886.927C1322.56,886.582 1326.68,885.222 1331.28,883.246C1338.8,880.013 1347.4,875.106 1356.3,869.419C1386.84,849.894 1420.58,821.202 1426.65,816.101C1443.1,802.287 1459.01,787.919 1474.7,773.316L1474.85,773.177ZM1973.15,629.161C1958.81,632.422 1935.52,642.691 1933.76,643.502C1922.69,648.555 1907.62,655.403 1891.09,663.499L1892.22,663.175C1922.09,654.585 1951.14,643.402 1967.39,633.192C1969.58,631.817 1971.52,630.475 1973.15,629.161ZM1854.6,491.91C1852.22,492.421 1849.7,493.181 1847.05,494.116C1835.45,498.209 1821.94,505.981 1808.2,515.101C1776.23,536.344 1743.36,565.051 1731.14,575.416C1695.84,604.957 1658.08,631.584 1622.11,660.355L1620.12,661.948C1625.02,659.546 1629.88,657.081 1634.71,654.534C1642.29,650.533 1649.76,646.325 1657.05,641.808C1680.74,627.131 1703.97,611.967 1726.76,596.138C1749.5,580.334 1771.78,563.87 1793.55,546.531C1805.91,536.707 1820.87,526.564 1833.9,515.095C1841.98,507.984 1849.29,500.356 1854.6,491.91Z" style=""/>
            </g>
        </g>
    </g>
</svg>
