<svg viewBox="0 0 895 423" width="100%" height="100%"
	xmlns="http://www.w3.org/2000/svg" fill="" fill-rule="evenodd" clip-rule="evenodd" stroke-linejoin="round" stroke-miterlimit="2">
	<path d="M204.591 269.984c26.78-25.489 53.38-51.17 81.25-75.559 13.06-11.422 26.52-22.358 40.18-33.057 31.66-24.79 64.34-48.348 95.1-74.175 14.34-11.935 56.4-48.144 93.1-69.24C533.34 6.956 551.2.233 563.28 2.035c1.93.291 3.15 1.2 3.95 2.332.73 1.025 1.17 2.345 1.06 3.951-.19 2.865-3.31 8.021-5 10.68-6.09 9.592-14.54 18.208-23.94 26.142-13.4 11.32-28.71 21.272-41.4 30.943-22.3 16.968-45.07 33.057-68.32 48.448-23.23 15.377-46.92 30.057-71.04 44.244-7.5 4.412-15.17 8.506-22.95 12.388-7.77 3.874-15.64 7.54-23.53 11.102-4.01 1.808-13.24 6.34-19.78 9.587l-.01.004c-20.59 17.884-40.48 36.481-60.26 55.183 55.39-25.845 104.77-47.51 125.7-58.49l.06-.064c5.19-5.169 11.15-9.51 17.5-13.362 12.24-7.427 26.01-13.006 38.68-19.17 5.31-3.115 10.62-6.219 15.95-9.3 5.29-3.067 10.6-6.11 15.92-9.115 6.61-3.91 13.06-7.64 17.32-9.86 2.29-1.194 4.01-1.96 4.86-2.174 1.16-.289 1.86.16 2.16.454.54.533.73 1.2.37 2.025-.12.265-.56.825-1.44 1.33-1.93 1.116-7.1 3.246-8.21 3.871-9.73 5.465-19.4 11.091-29.03 16.801-22.46 13.305-44.77 27.051-67.31 40.184a161.35 161.35 0 01-5.76 3.18c-.01.176-.02.351 0 .523.07.813.67 1.42 1.83 1.56 9.8 1.19 20.86-.848 32.34-4.458 10.8-3.396 21.96-8.18 32.78-13.077.07-.639.34-1.335.86-2.032 1.49-1.99 6.15-4.624 8.42-6.029 2.68-1.655 14.64-8.265 23.99-11.355 3.19-1.055 6.1-1.697 8.31-1.687 2.06.01 3.63.591 4.62 1.593 1.4 1.41 1.24 2.778-.05 4.057-.99.982-3.8 1.933-5.25 2.408-9.43 3.101-20.29 7.992-31.72 13.116 2.11-.049 4.54-.425 7.18-.983 15.48-3.274 37.28-13.67 47.5-16.444 2.34-.636 4.19-.869 5.4-.735 1.19.133 2.04.598 2.61 1.165.52.515 1.63 2.007.06 3.735-.09.103-.31.314-.69.58-.46.327-1.47.972-2.86 1.84-4.87 3.02-14.65 8.886-21.96 13.305 11.69-1.506 29.26-4.91 37.05-5.867 11.04-1.355 17.22 2.582-2.09 9.12-.66.221-5.15 1.73-8.99 3.54-.89.416-1.89 1.011-2.69 1.525 3.36 1.89 8.77 2.623 15.54 2.77 8.49.184 18.99-.798 30.56-2.652 31.84-18.188 65.83-33.689 86.29-43.092 1.97-.902 28.97-12.498 44.27-15.454 5.42-1.046 9.68-.79 11.79.388 2.08 1.158 3.19 2.928 3.19 5.391-.01 2.515-1.05 5.285-3.33 8.11-2.52 3.13-6.7 6.521-12.26 9.953-16.91 10.447-47.05 21.876-78.07 30.448-15.85 4.38-31.92 8.011-46.56 10.413a514.444 514.444 0 00-18.5 10.931c-25.36 15.748-47.3 32.784-56.02 49.378-.77 1.463-1.23 3.429-1 5.216.16 1.204.66 2.357 1.95 2.856 21.26 8.244 67.15-1.797 116.48-17.271 68.12-21.364 142.58-53.713 169.24-66.71 3.44-1.677 103.489-50.91 123.549-67.094-1.52.22-3.44.56-5.57 1.085a2.664 2.664 0 01-3.23-1.943 2.669 2.669 0 011.94-3.24c4.82-1.218 8.11-1.728 10.08-1.704 3.54.042 4.66 1.916 4.79 3.43.09 1.113-.67 3.104-3.03 5.263-16.55 15.126-122.26 67.988-125.81 69.741-30.63 15.121-124.19 56.1-199.12 76.625-39.6 10.848-74.15 15.747-92.05 8.893-3.39-1.299-5.37-3.816-6.3-6.802-1.19-3.83-.43-8.553 1.3-11.889 9.13-17.527 31.91-35.89 58.61-52.566l2.62-1.623c-5.84.504-11.22.704-15.98.558-10.44-.322-18.11-2.488-21.84-6.25-2.08-2.1-1.93-5.193 1.71-7.82.3-.212.62-.425.97-.638-6.97 1.117-14.32 2.268-20.02 2.91-5.77.648-10.08.54-11.39-.122-.93-.47-1.41-1.203-1.55-2.123-.06-.38-.25-1.493.88-2.549.1-.087.31-.269.66-.502.52-.347 1.64-1.039 3.18-1.964 3.77-2.27 10.13-6.013 16.1-9.543-8.86 3.323-19.79 7.695-29.45 10.44-9.41 2.672-17.74 3.636-22.31 1.325l-.15-.085c-11.09 4.911-22.529 9.732-33.589 13.113-12.01 3.671-23.58 5.656-33.8 4.34-2.44-.315-3.77-1.6-4.35-3.16-.07-.18-.13-.366-.17-.556-25.44 13.155-80.07 37.836-138.63 66.224-11.76 11.137-23.53 22.251-35.44 33.22-15.92 14.659-32.08 29.055-48.78 42.902-8.1 6.72-64.24 53.754-98.63 68.274-7.5 3.166-14.08 4.799-19.09 4.51-6.41-.37-10.8-3.402-12.58-9.688-1.6-5.656-.13-12.193 4.5-19.285 8.33-12.75 27.36-28.043 52.77-44.253 38.89-24.812 92.8-52.155 144.74-76.895zm-16.06 15.222c-30.7 15.239-61.35 31.136-88.46 46.603-36.65 20.916-66.8 40.926-81.32 57.575-6.27 7.193-9.71 13.38-8.16 18.745.81 2.818 3.11 3.707 6.17 3.613 6.8-.206 16.36-4.398 27.07-10.397 33.22-18.597 76.32-55.14 83.27-60.963 16.51-13.823 32.48-28.197 48.22-42.814 4.42-4.103 8.82-8.226 13.21-12.362zm490.08-137.553c-12.08.095-45.2 14.555-47.34 15.536-15.55 7.107-38.95 17.75-63.26 30.41a505.398 505.398 0 0023.45-6.09c30.15-8.588 59.46-19.828 75.87-30.097 4.6-2.874 8.13-5.613 10.21-8.22.43-.538.81-1.045 1.07-1.539zM558.28 10.477c-4.03.154-8.59 1.25-13.56 2.978-11.8 4.112-25.59 11.934-39.58 21.166-32.16 21.231-65.2 49.985-77.49 60.362-35.27 29.542-73.01 56.157-108.94 84.941a957.05 957.05 0 00-16.27 13.307c3.34-1.697 6.35-3.2 8.23-4.084 7.79-3.68 15.55-7.459 23.2-11.445 7.63-3.973 15.15-8.152 22.49-12.644 23.79-14.558 47.14-29.605 70.03-45.325 22.87-15.703 45.27-32.077 67.17-49.325 12.44-9.787 27.48-19.885 40.6-31.317 8.62-7.509 16.39-15.595 21.92-24.599.54-.867 1.44-2.553 2.2-4.015zm-96.89 161.81c-1.38.442-2.84.983-4.34 1.582-1.74.7-3.52 1.48-5.26 2.293 3.31-1.418 6.52-2.726 9.6-3.876z"/>
</svg>