<?xml version="1.0" encoding="UTF-8" standalone="no"?>
<svg width="100%" height="100%" viewBox="0 0 1475 14" version="1.1" xmlns="http://www.w3.org/2000/svg" xmlns:xlink="http://www.w3.org/1999/xlink" xml:space="preserve" style="fill-rule:evenodd;clip-rule:evenodd;stroke-linecap:round;stroke-linejoin:round;stroke-miterlimit:1.58537;">
    <g style="stroke-width: 2px;" transform="matrix(1,0,0,1,-197.39,-589.23)">
        <g id="Line">
            <g transform="matrix(1,-0.000124706,0.000124706,1,-115.488,-0.595756)">
                <path d="M315.907,599.895C315.175,599.743 318.549,599.579 318.897,599.535C320.536,599.33 322.285,599.535 323.951,599.535C329.769,599.535 335.279,598.693 341.078,598.693" style="stroke-width:;"/>
            </g>
            <g transform="matrix(1,-0.000124706,0.000124706,1,-115.488,-0.595756)">
                <path d="M356.219,599.667C356.327,600.424 361.732,600.097 362.698,600.097C364.897,600.097 366.952,600.378 369.156,600.378C369.781,600.378 373.087,600.706 373.087,600.097" style="stroke-width:;"/>
            </g>
            <g transform="matrix(1,-0.000124706,0.000124706,1,-115.488,-0.595756)">
                <path d="M387.12,599.895C387.133,600.311 391.455,600.097 391.619,600.097L393.584,600.097C394.785,599.963 405.658,598.927 405.658,599.254" style="stroke-width:;"/>
            </g>
            <g transform="matrix(1,-0.000124706,0.000124706,1,-115.488,-0.595756)">
                <path d="M418.688,599.333C416.404,598.877 431.584,599.535 434.859,599.535" style="stroke-width:;"/>
            </g>
            <g transform="matrix(1,-0.000124706,0.000124706,1,-115.488,-0.595756)">
                <path d="M447.658,599.816C447.649,599.816 449.588,599.816 450.021,599.816L453.671,599.816C457.513,599.816 461.338,598.974 465.183,598.974" style="stroke-width:;"/>
            </g>
            <g transform="matrix(1,-0.000124706,0.000124706,1,-115.488,-0.595756)">
                <path d="M476.651,599.781C482.463,600.408 488.54,599.816 494.384,599.816" style="stroke-width:;"/>
            </g>
            <g transform="matrix(1,-0.000124706,0.000124706,1,-115.488,-0.595756)">
                <path d="M508.862,600.343C514.542,600.837 520.184,599.535 525.831,599.535" style="stroke-width:;"/>
            </g>
            <g transform="matrix(1,-0.000124706,0.000124706,1,-115.488,-0.595756)">
                <path d="M539.459,599.965C543.469,601.248 549.407,599.535 553.629,599.535" style="stroke-width:;"/>
            </g>
            <g transform="matrix(1,-0.000124706,0.000124706,1,-115.488,-0.595756)">
                <path d="M565.596,599.86C568.886,599.487 578.98,599.014 582.268,600.658" style="stroke-width:;"/>
            </g>
            <g transform="matrix(1,-0.000124706,0.000124706,1,-115.488,-0.595756)">
                <path d="M597.129,599.711C597.795,600.564 600.331,600.097 601.361,600.097C605.891,600.097 610.322,599.535 614.839,599.535" style="stroke-width:;"/>
            </g>
            <g transform="matrix(1,-0.000124706,0.000124706,1,-115.488,-0.595756)">
                <path d="M628.475,599.114C628.012,598.704 629.663,599.535 630.282,599.535L634.774,599.535C637.246,599.535 647.639,601.271 649.375,599.535" style="stroke-width:;"/>
            </g>
            <g transform="matrix(1,-0.000124706,0.000124706,1,-115.488,-0.595756)">
                <path d="M665.626,598.851C665.698,599.709 669.692,599.254 670.433,599.254C674.836,599.254 679.408,597.851 683.63,597.851" style="stroke-width:;"/>
            </g>
            <g transform="matrix(1,-0.000124706,0.000124706,1,267.939,-2.01062)">
                <path d="M315.907,599.895C315.175,599.743 318.549,599.579 318.897,599.535C320.536,599.33 322.285,599.535 323.951,599.535C329.769,599.535 335.279,598.693 341.078,598.693" style="stroke-width:;"/>
            </g>
            <g transform="matrix(1,-0.000124706,0.000124706,1,267.939,-2.01062)">
                <path d="M356.219,599.667C356.327,600.424 361.732,600.097 362.698,600.097C364.897,600.097 366.952,600.378 369.156,600.378C369.781,600.378 373.087,600.706 373.087,600.097" style="stroke-width:;"/>
            </g>
            <g transform="matrix(1,-0.000124706,0.000124706,1,267.939,-2.01062)">
                <path d="M387.12,599.895C387.133,600.311 391.455,600.097 391.619,600.097L393.584,600.097C394.785,599.963 405.658,598.927 405.658,599.254" style="stroke-width:;"/>
            </g>
            <g transform="matrix(1,-0.000124706,0.000124706,1,267.939,-2.01062)">
                <path d="M418.688,599.333C416.404,598.877 431.584,599.535 434.859,599.535" style="stroke-width:;"/>
            </g>
            <g transform="matrix(1,-0.000124706,0.000124706,1,267.939,-2.01062)">
                <path d="M447.658,599.816C447.649,599.816 449.588,599.816 450.021,599.816L453.671,599.816C457.513,599.816 461.338,598.974 465.183,598.974" style="stroke-width:;"/>
            </g>
            <g transform="matrix(1,-0.000124706,0.000124706,1,267.939,-2.01062)">
                <path d="M476.651,599.781C482.463,600.408 488.54,599.816 494.384,599.816" style="stroke-width:;"/>
            </g>
            <g transform="matrix(1,-0.000124706,0.000124706,1,267.939,-2.01062)">
                <path d="M508.862,600.343C514.542,600.837 520.184,599.535 525.831,599.535" style="stroke-width:;"/>
            </g>
            <g transform="matrix(1,-0.000124706,0.000124706,1,267.939,-2.01062)">
                <path d="M539.459,599.965C543.469,601.248 549.407,599.535 553.629,599.535" style="stroke-width:;"/>
            </g>
            <g transform="matrix(1,-0.000124706,0.000124706,1,267.939,-2.01062)">
                <path d="M565.596,599.86C568.886,599.487 578.98,599.014 582.268,600.658" style="stroke-width:;"/>
            </g>
            <g transform="matrix(1,-0.000124706,0.000124706,1,267.939,-2.01062)">
                <path d="M597.129,599.711C597.795,600.564 600.331,600.097 601.361,600.097C605.891,600.097 610.322,599.535 614.839,599.535" style="stroke-width:;"/>
            </g>
            <g transform="matrix(1,-0.000124706,0.000124706,1,267.939,-2.01062)">
                <path d="M628.475,599.114C628.012,598.704 629.663,599.535 630.282,599.535L634.774,599.535C637.246,599.535 647.639,601.271 649.375,599.535" style="stroke-width:;"/>
            </g>
            <g transform="matrix(1.07055,-2.49413e-10,0.000133504,2e-06,216.206,598.135)">
                <path d="M665.626,598.851C665.698,599.709 669.692,599.254 670.433,599.254C674.836,599.254 679.408,597.851 683.63,597.851" style="stroke-width:7.9;"/>
            </g>
            <g transform="matrix(1,-0.000124706,0.000124706,1,644.122,-2.37698)">
                <path d="M315.907,599.895C315.175,599.743 318.549,599.579 318.897,599.535C320.536,599.33 322.285,599.535 323.951,599.535C329.769,599.535 335.279,598.693 341.078,598.693" style="stroke-width:;"/>
            </g>
            <g transform="matrix(1,-0.000124706,0.000124706,1,644.122,-2.37698)">
                <path d="M356.219,599.667C356.327,600.424 361.732,600.097 362.698,600.097C364.897,600.097 366.952,600.378 369.156,600.378C369.781,600.378 373.087,600.706 373.087,600.097" style="stroke-width:;"/>
            </g>
            <g transform="matrix(1,-0.000124706,0.000124706,1,644.122,-2.37698)">
                <path d="M387.12,599.895C387.133,600.311 391.455,600.097 391.619,600.097L393.584,600.097C394.785,599.963 405.658,598.927 405.658,599.254" style="stroke-width:;"/>
            </g>
            <g transform="matrix(1,-0.000124706,0.000124706,1,644.122,-2.37698)">
                <path d="M418.688,599.333C416.404,598.877 431.584,599.535 434.859,599.535" style="stroke-width:;"/>
            </g>
            <g transform="matrix(1,-0.000124706,0.000124706,1,644.122,-2.37698)">
                <path d="M447.658,599.816C447.649,599.816 449.588,599.816 450.021,599.816L453.671,599.816C457.513,599.816 461.338,598.974 465.183,598.974" style="stroke-width:;"/>
            </g>
            <g transform="matrix(1,-0.000124706,0.000124706,1,644.122,-2.37698)">
                <path d="M476.651,599.781C482.463,600.408 488.54,599.816 494.384,599.816" style="stroke-width:;"/>
            </g>
            <g transform="matrix(1,-0.000124706,0.000124706,1,644.122,-2.37698)">
                <path d="M508.862,600.343C514.542,600.837 520.184,599.535 525.831,599.535" style="stroke-width:;"/>
            </g>
            <g transform="matrix(1,-0.000124706,0.000124706,1,644.122,-2.37698)">
                <path d="M539.459,599.965C543.469,601.248 549.407,599.535 553.629,599.535" style="stroke-width:;"/>
            </g>
            <g transform="matrix(1,-0.000124706,0.000124706,1,644.122,-2.37698)">
                <path d="M565.596,599.86C568.886,599.487 578.98,599.014 582.268,600.658" style="stroke-width:;"/>
            </g>
            <g transform="matrix(1,-0.000124706,0.000124706,1,644.122,-2.37698)">
                <path d="M597.129,599.711C597.795,600.564 600.331,600.097 601.361,600.097C605.891,600.097 610.322,599.535 614.839,599.535" style="stroke-width:;"/>
            </g>
            <g transform="matrix(1,-0.000124706,0.000124706,1,644.122,-2.37698)">
                <path d="M628.475,599.114C628.012,598.704 629.663,599.535 630.282,599.535L634.774,599.535C637.246,599.535 647.639,601.271 649.375,599.535" style="stroke-width:;"/>
            </g>
            <g transform="matrix(1,-0.000124706,0.000124706,1,644.122,-2.37698)">
                <path d="M665.626,598.851C665.698,599.709 669.692,599.254 670.433,599.254C674.836,599.254 679.408,597.851 683.63,597.851" style="stroke-width:;"/>
            </g>
            <g transform="matrix(1,-0.000124706,0.000124706,1,985.303,-5.53561)">
                <path d="M356.219,599.667C356.327,600.424 361.732,600.097 362.698,600.097C364.897,600.097 366.952,600.378 369.156,600.378C369.781,600.378 373.087,600.706 373.087,600.097" style="stroke-width:;"/>
            </g>
            <g transform="matrix(1,-0.000124706,0.000124706,1,985.303,-5.53561)">
                <path d="M387.12,599.895C387.133,600.311 391.455,600.097 391.619,600.097L393.584,600.097C394.785,599.963 405.658,598.927 405.658,599.254" style="stroke-width:;"/>
            </g>
            <g transform="matrix(1,-0.000124706,0.000124706,1,985.303,-5.53561)">
                <path d="M418.688,599.333C416.404,598.877 431.584,599.535 434.859,599.535" style="stroke-width:;"/>
            </g>
            <g transform="matrix(1,-0.000124706,0.000124706,1,985.303,-5.53561)">
                <path d="M447.658,599.816C447.649,599.816 449.588,599.816 450.021,599.816L453.671,599.816C457.513,599.816 461.338,598.974 465.183,598.974" style="stroke-width:;"/>
            </g>
            <g transform="matrix(1,-0.000124706,0.000124706,1,985.303,-5.53561)">
                <path d="M476.651,599.781C482.463,600.408 488.54,599.816 494.384,599.816" style="stroke-width:;"/>
            </g>
            <g transform="matrix(1,-0.000124706,0.000124706,1,985.303,-5.53561)">
                <path d="M508.862,600.343C514.542,600.837 520.184,599.535 525.831,599.535" style="stroke-width:;"/>
            </g>
            <g transform="matrix(1,-0.000124706,0.000124706,1,985.303,-5.53561)">
                <path d="M539.459,599.965C543.469,601.248 549.407,599.535 553.629,599.535" style="stroke-width:;"/>
            </g>
            <g transform="matrix(1,-0.000124706,0.000124706,1,985.303,-5.53561)">
                <path d="M565.596,599.86C568.886,599.487 578.98,599.014 582.268,600.658" style="stroke-width:;"/>
            </g>
            <g transform="matrix(1,-0.000124706,0.000124706,1,985.303,-5.53561)">
                <path d="M597.129,599.711C597.795,600.564 600.331,600.097 601.361,600.097C605.891,600.097 610.322,599.535 614.839,599.535" style="stroke-width:;"/>
            </g>
            <g transform="matrix(1,-0.000124706,0.000124706,1,985.303,-5.53561)">
                <path d="M628.475,599.114C628.012,598.704 629.663,599.535 630.282,599.535L634.774,599.535C637.246,599.535 647.639,601.271 649.375,599.535" style="stroke-width:;"/>
            </g>
            <g transform="matrix(1,-0.000124706,0.000124706,1,985.303,-5.53561)">
                <path d="M665.626,598.851C665.698,599.709 669.692,599.254 670.433,599.254C674.836,599.254 679.408,597.851 683.63,597.851" style="stroke-width:;"/>
            </g>
        </g>
    </g>
</svg>
