<svg xmlns="http://www.w3.org/2000/svg" viewBox="0 0 1497 74"  stroke-linecap="round" ><g transform="matrix(-1 0 0 -1 1685.046 545.94)" fill="none" stroke=""><g stroke-width="3"><use xlink:href="#B"/><use xlink:href="#C"/><use xlink:href="#D"/><use xlink:href="#E"/><path d="M924.147 500.892c3.594-1.174 9.448-.062 13.295-.062h5.898"/><use xlink:href="#F"/><use xlink:href="#G"/><use xlink:href="#H"/><use xlink:href="#D" x="-246.72" y="0.546"/><use xlink:href="#E" x="-246.72" y="0.546"/><path d="M676.153 501.506c4.32.184 9.085.303 13.468-.144 1.365-.14 2.838.143 4.11.014.458-.047.912.08 1.387.032.257-.027 1.027.02.775-.036-.157-.035-.323-.003-.48-.038"/><use xlink:href="#F" x="-246.72" y="0.546"/><use xlink:href="#G" x="-246.72" y="0.547"/><use xlink:href="#H" x="-246.72" y="0.546"/><path d="M1657.834 473.942c0 6.05.26 12.098.28 18.15m-.36 10.608v16.018m-.02 7.918c.28 5.944-.03 11.86-.1 17.803" stroke-miterlimit="1.5"/><use xlink:href="#B" x="338.595" y="-0.6"/><use xlink:href="#C" x="338.595" y="-0.602"/><use xlink:href="#D" x="338.594" y="-0.602"/><use xlink:href="#E" x="338.595" y="-0.602"/><path d="M1262.74 500.3c3.594-1.174 9.448-.062 13.295-.062h5.898"/><use xlink:href="#F" x="338.594" y="-0.602"/><use xlink:href="#G" x="338.594" y="-0.6"/><use xlink:href="#H" x="338.594" y="-0.602"/><use xlink:href="#F" x="91.874" y="-0.056"/><use xlink:href="#G" x="91.874" y="-0.055"/><use xlink:href="#H" x="91.874" y="-0.057"/><use xlink:href="#D" x="-433.271" y="1.609"/><use xlink:href="#E" x="-433.271" y="1.609"/><path d="M490.876 502.5c3.594-1.174 9.448-.062 13.295-.062h5.898"/><use xlink:href="#F" x="-433.271" y="1.609"/><use xlink:href="#G" x="-433.271" y="1.61"/><use xlink:href="#D" x="-588.861" y="2.166"/><use xlink:href="#E" x="-588.861" y="2.166"/></g><path d="M335.74 502.103c3.51.91 9.225.048 12.98.048h5.76" stroke-width="2.999"/><g stroke-width="3"><use xlink:href="#F" x="-588.861" y="2.166"/><use xlink:href="#G" x="-588.861" y="2.167"/><use xlink:href="#H" x="-433.271" y="1.609"/><use xlink:href="#E" x="-433.271" y="1.609"/><use xlink:href="#D" x="-433.271" y="1.609"/></g><path d="M490.15 501.867c3.795-.124 9.976-.007 14.038-.007h6.227" stroke-width="3.001"/><g stroke-width="3"><use xlink:href="#F" x="-432.921" y="1.457"/><use xlink:href="#G" x="-432.921" y="1.458"/></g><path d="M216.852 502.592c-.646 0 2.986 0 4.664 0h14.745" stroke-width="2.998"/><path d="M190.57 501.868c-.544 0 2.516 0 3.93 0h12.423" stroke-width="3.003"/><g stroke-width="3"><use xlink:href="#G" x="-741.749" y="2.016"/><use xlink:href="#B" x="678.155" y="-1.804"/><use xlink:href="#C" x="678.155" y="-1.805"/><use xlink:href="#D" x="678.154" y="-1.806"/><use xlink:href="#E" x="678.155" y="-1.805"/><path d="M1602.3 499.087c3.594-1.174 9.448-.062 13.295-.062h5.898"/><use xlink:href="#F" x="678.154" y="-1.805"/><use xlink:href="#G" x="678.154" y="-1.804"/><use xlink:href="#F" x="431.438" y="-1.258"/><use xlink:href="#G" x="431.438" y="-1.258"/><use xlink:href="#H" x="431.438" y="-1.259"/></g></g><defs ><path id="B" d="M798.865 500.41c-1.076.282 3.73.092 4.89.092h11.14c1.533 0 6.12-.328 4.587-.328"/><path id="C" d="M829.42 500.677c-1.3.46 3.544.153 4.808.153h11.14c1.355 0 4.803-.327 3.932-.327"/><path id="D" d="M860.263 500.626c-.032.044 4.906.204 5.75.204h18.02"/><path id="E" d="M894.725 500.288c-.972-.53 4.76-.113 6.674-.113h14.417"/><path id="F" d="M955.386 500.718c-.646.3 2.986-.215 4.664-.215h10.813c1.17 0 4.936.327 3.932.327"/><path id="G" d="M985.846 500.41c-.798.31 2.98.092 4.022.092h15.072"/><path id="H" d="M1015.828 500.677c-.114-.263 1.8-.174 2.218-.174 1.678 0 3.46-.328 5.243-.328h13.434"/></defs></svg>