<svg viewBox="0 0 1497 74" xmlns="http://www.w3.org/2000/svg" style="fill-rule:evenodd;clip-rule:evenodd;stroke-linecap:round;stroke-linejoin:round;">
    <g style="stroke-width:2px;fill:;"  transform="matrix(1,0,0,1,-191.601,-471.517)">
        <g>
            <g transform="matrix(1,0,0,1,2.596,-0.925416)">
                <g transform="matrix(1,0,0,1,566.346,0.486551)">
                    <path d="M232.519,499.924C231.443,500.206 236.25,500.016 237.41,500.016L248.551,500.016C250.084,500.016 254.671,499.688 253.138,499.688" />
                </g>
                <g transform="matrix(1,0,0,1,566.346,0.486551)">
                    <path d="M263.075,500.19C261.776,500.649 266.619,500.343 267.883,500.343L279.023,500.343C280.378,500.343 283.826,500.016 282.955,500.016" />
                </g>
                <g transform="matrix(1,0,0,1,566.346,0.486551)">
                    <path d="M293.917,500.139C293.885,500.183 298.823,500.343 299.666,500.343L312.445,500.343C314.192,500.343 319.435,500.343 317.687,500.343" />
                </g>
                <g transform="matrix(1,0,0,1,566.346,0.486551)">
                    <path d="M328.379,499.801C327.407,499.272 333.139,499.688 335.053,499.688L349.47,499.688" />
                </g>
                <g transform="matrix(1,0,0,1,566.346,0.486551)">
                    <path d="M357.801,500.405C361.395,499.231 367.249,500.343 371.096,500.343L376.666,500.343C376.775,500.343 377.285,500.343 376.994,500.343" />
                </g>
                <g transform="matrix(1,0,0,1,566.346,0.486551)">
                    <path d="M389.04,500.231C388.394,500.521 392.026,500.016 393.704,500.016L404.517,500.016C405.686,500.016 409.453,500.343 408.449,500.343" />
                </g>
                <g transform="matrix(1,0,0,1,566.346,0.486551)">
                    <path d="M419.5,499.924C418.702,500.233 422.481,500.016 423.522,500.016L434.007,500.016C435.123,500.016 440.626,500.016 438.594,500.016" />
                </g>
                <g transform="matrix(1,0,0,1,566.346,0.486551)">
                    <path d="M449.482,500.19C449.368,499.927 451.292,500.016 451.7,500.016C453.378,500.016 455.16,499.688 456.943,499.688L470.377,499.688" />
                </g>
                <g transform="matrix(1,0,0,1,319.626,1.03254)">
                    <path d="M293.917,500.139C293.885,500.183 298.823,500.343 299.666,500.343L312.445,500.343C314.192,500.343 319.435,500.343 317.687,500.343" />
                </g>
                <g transform="matrix(1,0,0,1,319.626,1.03254)">
                    <path d="M328.379,499.801C327.407,499.272 333.139,499.688 335.053,499.688L349.47,499.688" />
                </g>
                <g transform="matrix(1,0,0,1,-2.94551,1.07677)">
                    <path d="M679.099,500.429C683.42,500.613 688.184,500.732 692.567,500.285C693.932,500.146 695.405,500.428 696.676,500.299C697.134,500.252 697.588,500.379 698.063,500.331C698.32,500.304 699.09,500.351 698.838,500.295C698.681,500.26 698.515,500.292 698.358,500.257" />
                </g>
                <g transform="matrix(1,0,0,1,319.626,1.03254)">
                    <path d="M389.04,500.231C388.394,500.521 392.026,500.016 393.704,500.016L404.517,500.016C405.686,500.016 409.453,500.343 408.449,500.343" />
                </g>
                <g transform="matrix(1,0,0,1,319.626,1.03254)">
                    <path d="M419.5,499.924C418.702,500.233 422.481,500.016 423.522,500.016L434.007,500.016C435.123,500.016 440.626,500.016 438.594,500.016" />
                </g>
                <g transform="matrix(1,0,0,1,319.626,1.03254)">
                    <path d="M449.482,500.19C449.368,499.927 451.292,500.016 451.7,500.016C453.378,500.016 455.16,499.688 456.943,499.688L470.377,499.688" />
                </g>
                <g transform="matrix(1,0,0,1,-2.596,0.925416)">
                    <path d="M1660.43,473.017C1660.43,479.066 1660.69,485.115 1660.71,491.167" style="stroke-width:2px;stroke-miterlimit:1.5;"/>
                </g>
                <g transform="matrix(1,0,0,1,-2.596,0.925416)">
                    <path d="M1660.35,501.774C1660.35,507.112 1660.28,512.455 1660.35,517.792" style="stroke-width:2px;stroke-miterlimit:1.5;"/>
                </g>
                <g transform="matrix(1,0,0,1,-2.596,0.925416)">
                    <path d="M1660.33,525.711C1660.61,531.655 1660.3,537.571 1660.23,543.514" style="stroke-width:2px;stroke-miterlimit:1.5;"/>
                </g>
                <g transform="matrix(1,0,0,1,904.94,-0.114629)">
                    <path d="M232.519,499.924C231.443,500.206 236.25,500.016 237.41,500.016L248.551,500.016C250.084,500.016 254.671,499.688 253.138,499.688" />
                </g>
                <g transform="matrix(1,0,0,1,904.94,-0.114629)">
                    <path d="M263.075,500.19C261.776,500.649 266.619,500.343 267.883,500.343L279.023,500.343C280.378,500.343 283.826,500.016 282.955,500.016" />
                </g>
                <g transform="matrix(1,0,0,1,904.94,-0.114629)">
                    <path d="M293.917,500.139C293.885,500.183 298.823,500.343 299.666,500.343L312.445,500.343C314.192,500.343 319.435,500.343 317.687,500.343" />
                </g>
                <g transform="matrix(1,0,0,1,904.94,-0.114629)">
                    <path d="M328.379,499.801C327.407,499.272 333.139,499.688 335.053,499.688L349.47,499.688" />
                </g>
                <g transform="matrix(1,0,0,1,904.94,-0.114629)">
                    <path d="M357.801,500.405C361.395,499.231 367.249,500.343 371.096,500.343L376.666,500.343C376.775,500.343 377.285,500.343 376.994,500.343" />
                </g>
                <g transform="matrix(1,0,0,1,904.94,-0.114629)">
                    <path d="M389.04,500.231C388.394,500.521 392.026,500.016 393.704,500.016L404.517,500.016C405.686,500.016 409.453,500.343 408.449,500.343" />
                </g>
                <g transform="matrix(1,0,0,1,904.94,-0.114629)">
                    <path d="M419.5,499.924C418.702,500.233 422.481,500.016 423.522,500.016L434.007,500.016C435.123,500.016 440.626,500.016 438.594,500.016" />
                </g>
                <g transform="matrix(1,0,0,1,904.94,-0.114629)">
                    <path d="M449.482,500.19C449.368,499.927 451.292,500.016 451.7,500.016C453.378,500.016 455.16,499.688 456.943,499.688L470.377,499.688" />
                </g>
                <g transform="matrix(1,0,0,1,658.22,0.431355)">
                    <path d="M389.04,500.231C388.394,500.521 392.026,500.016 393.704,500.016L404.517,500.016C405.686,500.016 409.453,500.343 408.449,500.343" />
                </g>
                <g transform="matrix(1,0,0,1,658.22,0.431355)">
                    <path d="M419.5,499.924C418.702,500.233 422.481,500.016 423.522,500.016L434.007,500.016C435.123,500.016 440.626,500.016 438.594,500.016" />
                </g>
                <g transform="matrix(1,0,0,1,658.22,0.431355)">
                    <path d="M449.482,500.19C449.368,499.927 451.292,500.016 451.7,500.016C453.378,500.016 455.16,499.688 456.943,499.688L470.377,499.688" />
                </g>
                <g transform="matrix(1,0,0,1,133.075,2.09551)">
                    <path d="M293.917,500.139C293.885,500.183 298.823,500.343 299.666,500.343L312.445,500.343C314.192,500.343 319.435,500.343 317.687,500.343" />
                </g>
                <g transform="matrix(1,0,0,1,133.075,2.09551)">
                    <path d="M328.379,499.801C327.407,499.272 333.139,499.688 335.053,499.688L349.47,499.688" />
                </g>
                <g transform="matrix(1,0,0,1,133.075,2.09551)">
                    <path d="M357.801,500.405C361.395,499.231 367.249,500.343 371.096,500.343L376.666,500.343C376.775,500.343 377.285,500.343 376.994,500.343" />
                </g>
                <g transform="matrix(1,0,0,1,133.075,2.09551)">
                    <path d="M389.04,500.231C388.394,500.521 392.026,500.016 393.704,500.016L404.517,500.016C405.686,500.016 409.453,500.343 408.449,500.343" />
                </g>
                <g transform="matrix(1,0,0,1,133.075,2.09551)">
                    <path d="M419.5,499.924C418.702,500.233 422.481,500.016 423.522,500.016L434.007,500.016C435.123,500.016 440.626,500.016 438.594,500.016" />
                </g>
                <g transform="matrix(1,0,0,1,-22.5148,2.65286)">
                    <path d="M293.917,500.139C293.885,500.183 298.823,500.343 299.666,500.343L312.445,500.343C314.192,500.343 319.435,500.343 317.687,500.343" />
                </g>
                <g transform="matrix(1,0,0,1,-22.5148,2.65286)">
                    <path d="M328.379,499.801C327.407,499.272 333.139,499.688 335.053,499.688L349.47,499.688" />
                </g>
                <g transform="matrix(0.976407,0,0,-0.77614,-13.6182,890.487)">
                    <path d="M357.801,500.405C361.395,499.231 367.249,500.343 371.096,500.343L376.666,500.343C376.775,500.343 377.285,500.343 376.994,500.343" />
                </g>
                <g transform="matrix(1,0,0,1,-22.5148,2.65286)">
                    <path d="M389.04,500.231C388.394,500.521 392.026,500.016 393.704,500.016L404.517,500.016C405.686,500.016 409.453,500.343 408.449,500.343" />
                </g>
                <g transform="matrix(1,0,0,1,-22.5148,2.65286)">
                    <path d="M419.5,499.924C418.702,500.233 422.481,500.016 423.522,500.016L434.007,500.016C435.123,500.016 440.626,500.016 438.594,500.016" />
                </g>
                <g transform="matrix(1,0,0,1,133.075,2.09551)">
                    <path d="M449.482,500.19C449.368,499.927 451.292,500.016 451.7,500.016C453.378,500.016 455.16,499.688 456.943,499.688L470.377,499.688"/>
                </g>
                <g transform="matrix(1,0,0,1,133.075,2.09551)">
                    <path d="M328.379,499.801C327.407,499.272 333.139,499.688 335.053,499.688L349.47,499.688"/>
                </g>
                <g transform="matrix(1,0,0,1,133.075,2.09551)">
                    <path d="M293.917,500.139C293.885,500.183 298.823,500.343 299.666,500.343L312.445,500.343C314.192,500.343 319.435,500.343 317.687,500.343"/>
                </g>
                <g transform="matrix(1.05586,0,0,0.105465,112.362,449.092)">
                    <path d="M357.801,500.405C361.395,499.231 367.249,500.343 371.096,500.343L376.666,500.343C376.775,500.343 377.285,500.343 376.994,500.343"/>
                </g>
                <g transform="matrix(1,0,0,1,133.425,1.94415)">
                    <path d="M389.04,500.231C388.394,500.521 392.026,500.016 393.704,500.016L404.517,500.016C405.686,500.016 409.453,500.343 408.449,500.343"/>
                </g>
                <g transform="matrix(1,0,0,1,133.425,1.94415)">
                    <path d="M419.5,499.924C418.702,500.233 422.481,500.016 423.522,500.016L434.007,500.016C435.123,500.016 440.626,500.016 438.594,500.016"/>
                </g>
                <g transform="matrix(1,0,0,2e-06,-172.188,502.591)">
                    <path d="M389.04,500.231C388.394,500.521 392.026,500.016 393.704,500.016L404.517,500.016C405.686,500.016 409.453,500.343 408.449,500.343" />
                </g>
                <g transform="matrix(0.842505,0,0,2e-06,-137.198,501.867)">
                    <path d="M389.04,500.231C388.394,500.521 392.026,500.016 393.704,500.016L404.517,500.016C405.686,500.016 409.453,500.343 408.449,500.343" style="stroke-width:5.04px;"/>
                </g>
                <g transform="matrix(1,0,0,1,-175.403,2.50151)">
                    <path d="M419.5,499.924C418.702,500.233 422.481,500.016 423.522,500.016L434.007,500.016C435.123,500.016 440.626,500.016 438.594,500.016"/>
                </g>
                <g transform="matrix(1,0,0,1,1244.5,-1.31807)">
                    <path d="M232.519,499.924C231.443,500.206 236.25,500.016 237.41,500.016L248.551,500.016C250.084,500.016 254.671,499.688 253.138,499.688"/>
                </g>
                <g transform="matrix(1,0,0,1,1244.5,-1.31807)">
                    <path d="M263.075,500.19C261.776,500.649 266.619,500.343 267.883,500.343L279.023,500.343C280.378,500.343 283.826,500.016 282.955,500.016"/>
                </g>
                <g transform="matrix(1,0,0,1,1244.5,-1.31807)">
                    <path d="M293.917,500.139C293.885,500.183 298.823,500.343 299.666,500.343L312.445,500.343C314.192,500.343 319.435,500.343 317.687,500.343"/>
                </g>
                <g transform="matrix(1,0,0,1,1244.5,-1.31807)">
                    <path d="M328.379,499.801C327.407,499.272 333.139,499.688 335.053,499.688L349.47,499.688"/>
                </g>
                <g transform="matrix(1,0,0,1,1244.5,-1.31807)">
                    <path d="M357.801,500.405C361.395,499.231 367.249,500.343 371.096,500.343L376.666,500.343C376.775,500.343 377.285,500.343 376.994,500.343"/>
                </g>
                <g transform="matrix(1,0,0,1,1244.5,-1.31807)">
                    <path d="M389.04,500.231C388.394,500.521 392.026,500.016 393.704,500.016L404.517,500.016C405.686,500.016 409.453,500.343 408.449,500.343"/>
                </g>
                <g transform="matrix(1,0,0,1,1244.5,-1.31807)">
                    <path d="M419.5,499.924C418.702,500.233 422.481,500.016 423.522,500.016L434.007,500.016C435.123,500.016 440.626,500.016 438.594,500.016"/>
                </g>
                <g transform="matrix(1,0,0,1,997.784,-0.772094)">
                    <path d="M389.04,500.231C388.394,500.521 392.026,500.016 393.704,500.016L404.517,500.016C405.686,500.016 409.453,500.343 408.449,500.343"/>
                </g>
                <g transform="matrix(1,0,0,1,997.784,-0.772094)">
                    <path d="M419.5,499.924C418.702,500.233 422.481,500.016 423.522,500.016L434.007,500.016C435.123,500.016 440.626,500.016 438.594,500.016"/>
                </g>
                <g transform="matrix(1,0,0,1,997.784,-0.772094)">
                    <path d="M449.482,500.19C449.368,499.927 451.292,500.016 451.7,500.016C453.378,500.016 455.16,499.688 456.943,499.688L470.377,499.688"/>
                </g>
            </g>
            <g style="stroke-width:2px;stroke:;fill:none;">
                <path d="M1636.5,526.645L1590.51,515.324C1590.51,515.324 1592.35,518.355 1591.71,519.878C1591.12,521.309 1588.05,521.197 1587.87,522.403C1587.74,523.315 1590.71,525.183 1590.75,526.538C1590.83,529.137 1588.13,531.289 1588.13,531.289C1588.13,531.289 1590.85,532.717 1591.22,533.665C1591.65,534.799 1590.76,538.092 1590.76,538.092L1636.5,526.645Z"/>
                <path d="M1590.51,515.324L1404.22,515.324"/>
                <path d="M1590.51,538.092L1404.22,540"/>
                <g transform="matrix(1,0,0,1,0,0.328542)">
                    <path d="M1587.2,521.867L1418,522.872"/>
                </g>
                <g transform="matrix(1,0,0,1,0,0.0594086)">
                    <path d="M1587.2,531.109L1418,534.108"/>
                </g>
                <path d="M1619.42,523.2C1619.42,523.2 1616.21,527.057 1619.65,530.215"/>
                <g transform="matrix(1,0,0,1.04022,0,-20.7263)">
                    <path d="M1423.32,515.324C1421.32,517.645 1419.12,519.848 1418,521.929C1414.13,529.112 1415.89,533.936 1423.01,538.129"/>
                </g>
                <g transform="matrix(1,0,0,1.04022,-7.23782,-20.7263)">
                    <path d="M1423.32,515.324C1421.32,517.645 1419.12,519.848 1418,521.929C1414.13,529.112 1416.12,533.936 1423.23,538.129"/>
                </g>
                <path d="M1404.22,540C1404.22,540 1399.19,531.775 1399.19,527.662C1399.19,523.549 1404.22,515.324 1404.22,515.324"/>
            </g>
        </g>
    </g>
</svg>
